<svg height="512pt" viewBox="-80 0 512 512" width="512pt" xmlns="http://www.w3.org/2000/svg"><path d="m304.203125 83.546875c-6.15625 0-12.035156 1.199219-17.433594 3.355469-2.605469-23.542969-22.609375-41.917969-46.832031-41.917969-6.042969 0-11.820312 1.15625-17.132812 3.238281v-1.089844c0-25.988281-21.144532-47.132812-47.136719-47.132812-25.988281 0-47.132813 21.144531-47.132813 47.132812v1.089844c-5.3125-2.082031-11.089844-3.234375-17.132812-3.234375-25.988282 0-47.132813 21.144531-47.132813 47.136719v126.382812l-17.132812-.003906c-25.992188 0-47.136719 21.144532-47.136719 47.132813v70.699219c0 96.859374 78.804688 175.664062 175.667969 175.664062s175.667969-78.804688 175.667969-175.667969v-205.652343c0-25.988282-21.144532-47.132813-47.132813-47.132813zm-209.933594 8.574219c0-9.449219 7.6875-17.136719 17.132813-17.136719 9.449218 0 17.132812 7.6875 17.132812 17.136719v126.386718l-34.265625-.003906zm81.398438 389.878906c-80.320313 0-145.667969-65.347656-145.667969-145.667969v-70.695312c0-9.445313 7.6875-17.132813 17.136719-17.132813h32.09375c.011719 0 .027343.003906.039062.003906s.023438-.003906.039063-.003906l64.226562.003906c9.449219 0 17.136719 7.683594 17.136719 17.132813 0 9.445313-7.6875 17.132813-17.136719 17.132813h-64.265625c-8.285156 0-15 6.714843-15 15 0 8.285156 6.714844 15 15 15h64.265625c25.992188 0 47.136719-21.144532 47.136719-47.132813 0-20.746094-13.480469-38.394531-32.136719-44.671875v-173.835938c0-9.445312 7.6875-17.132812 17.132813-17.132812 9.449219 0 17.136719 7.6875 17.136719 17.132812v144.601563c0 8.28125 6.714843 15 15 15 8.285156 0 15-6.71875 15-15v-99.613281c0-9.449219 7.683593-17.136719 17.132812-17.136719 9.445312 0 17.128906 7.6875 17.128906 17.136719v131.746094c0 8.28125 6.71875 15 15 15 8.285156 0 15-6.71875 15-15v-93.1875c0-9.445313 7.6875-17.132813 17.136719-17.132813s17.136719 7.6875 17.136719 17.132813v205.652343c-.003906 80.320313-65.351563 145.667969-145.671875 145.667969zm0 0"/></svg>