<?xml version="1.0" encoding="iso-8859-1"?>
<!-- Generator: Adobe Illustrator 19.0.0, SVG Export Plug-In . SVG Version: 6.00 Build 0)  -->
<svg version="1.1" id="Capa_1" xmlns="http://www.w3.org/2000/svg" xmlns:xlink="http://www.w3.org/1999/xlink" x="0px" y="0px"
	 viewBox="0 0 512 512" style="enable-background:new 0 0 512 512;" xml:space="preserve">
<g>
	<g>
		<path d="M256.008,0c-33.084,0-60,26.916-60,60s26.916,60,60,60c33.084,0,60-26.916,60-60S289.092,0,256.008,0z M256.008,90
			c-16.542,0-30-13.458-30-30s13.458-30,30-30s30,13.458,30,30S272.55,90,256.008,90z"/>
	</g>
</g>
<g>
	<g>
		<path d="M406.007,120h-150h-150c-24.813,0-44.999,20.187-44.999,45s20.187,45,45,45h105v32.003L79.011,341.001
			c-19.906,14.912-23.93,43.102-8.998,63.002c14.625,19.499,42.792,24.158,62.997,8.991l77.997-58.498V467c0,24.813,20.187,45,45,45
			c24.813,0,45-20.187,45-45V210h105c24.813,0,45-20.187,45-45S430.82,120,406.007,120z M406.008,180h-120c-8.284,0-15,6.716-15,15
			v272c0,8.271-6.729,15-15,15c-8.271,0-15-6.729-15-15V324.496c0-12.397-14.184-19.362-24-12l-102.002,76.502
			c-6.561,4.925-15.963,3.71-20.994-2.997c-4.973-6.629-3.648-16.021,2.993-20.995l138.003-103.502c3.777-2.833,6-7.279,6-12V195
			c0-8.284-6.716-15-15-15h-120c-8.271,0-15-6.729-15-15s6.729-15,15-15h300c8.271,0,15,6.729,15,15S414.279,180,406.008,180z"/>
	</g>
</g>
<g>
</g>
<g>
</g>
<g>
</g>
<g>
</g>
<g>
</g>
<g>
</g>
<g>
</g>
<g>
</g>
<g>
</g>
<g>
</g>
<g>
</g>
<g>
</g>
<g>
</g>
<g>
</g>
<g>
</g>
</svg>
